# xmcd CD database file
#
# Track frame offsets:
# 150
# 18653
# 36706
# 51536
# 66123
# 83919
# 99344
# 119146
# 141946
# 158314
# 173056
# 195011
# 214631
# 235773
# 250546
# 266812
# 282206
# 299700
# 315834
# 332153
#
# Disc length: 4670  seconds
#
# Revision: 0
# Processed by: cddbd v1.5.1PL2 Copyright (c) Steve Scherf et al.
# Submitted via: Kronen-Design 1.33
#
DISCID=24123c14
DTITLE=Various Artist - TDR 24 - HPS
DYEAR=1900
DGENRE=
TTITLE0=Brice Long - Anywhere But Here
TTITLE1=Diamond Rio - God Only Cries
TTITLE2=John Pierce - I'd Still Have You
TTITLE3=Rhett Akins - More Than Everything
TTITLE4=Tyler Dean - Somebody Who Would Die For You
TTITLE5=Kenny Rogers - I Can't Unlove You
TTITLE6=Faith Hill - Like We Never Loved At All (Album Version)
TTITLE7=Patty Loveless - How Can I Help You To Say Goodbye
TTITLE8=Western Flyer - Lost In You
TTITLE9=Rick Trevino - She Can't Say I Didn't Cry
TTITLE10=Brooks and Dunn - Believe
TTITLE11=Keith Urban - Tonight I Wanna Cry
TTITLE12=Garth Brooks and Trisha Yearwood - Love Will Always Win
TTITLE13=Zona Jones - Ill Give It To You
TTITLE14=Eddie Rabbitt - Pour Me Another Tequila (Netradio)
TTITLE15=Lonestar and Tracy Byrd - I Wanna Feel That Way Again
TTITLE16=Rascal Flatts - Cool Thing
TTITLE17=Heartland - I Loved Her First
TTITLE18=Rio Grand - Kill Me Now
TTITLE19=Chris Cagle - Anywhere But Here
EXTD=
EXTT0=
EXTT1=
EXTT2=
EXTT3=
EXTT4=
EXTT5=
EXTT6=
EXTT7=
EXTT8=
EXTT9=
EXTT10=
EXTT11=
EXTT12=
EXTT13=
EXTT14=
EXTT15=
EXTT16=
EXTT17=
EXTT18=
EXTT19=
PLAYORDER=
